<svg width="24" height="24" xmlns="http://www.w3.org/2000/svg">

 <g>
  <title>Layer 1</title>
  <ellipse stroke="#000" ry="11.95487" rx="11.95487" id="svg_4" cy="12" cx="12" stroke-width="0" fill="#fff"/>
  <path stroke="null" id="svg_2" d="m21.15414,18.33271l-5.49248,0l0,-3.66165l-2.45331,0c-1.04357,2.2153 -3.29549,3.66165 -5.78541,3.66165c-3.5335,0 -6.4079,-2.8744 -6.4079,-6.4079s2.8744,-6.4079 6.4079,-6.4079c2.48993,0 4.73269,1.44635 5.78541,3.66165l9.77662,0l0,5.49248l-1.83083,0l0,3.66165zm-3.66165,-1.83083l1.83083,0l0,-3.66165l1.83083,0l0,-1.83083l-9.20906,0l-0.21055,-0.61333c-0.64079,-1.82167 -2.38008,-3.04833 -4.3116,-3.04833c-2.52654,0 -4.57707,2.05053 -4.57707,4.57707s2.05053,4.57707 4.57707,4.57707c1.93152,0 3.67081,-1.22665 4.3116,-3.04833l0.21055,-0.61333l5.54741,0l0,3.66165zm-10.06955,-1.83083c-1.51043,0 -2.74624,-1.23581 -2.74624,-2.74624s1.23581,-2.74624 2.74624,-2.74624s2.74624,1.23581 2.74624,2.74624s-1.23581,2.74624 -2.74624,2.74624zm0,-3.66165c-0.50348,0 -0.91541,0.41194 -0.91541,0.91541s0.41194,0.91541 0.91541,0.91541s0.91541,-0.41194 0.91541,-0.91541s-0.41194,-0.91541 -0.91541,-0.91541z"/>
 </g>
</svg>